<svg xmlns="http://www.w3.org/2000/svg" viewBox="0 0 415 285"><defs><style>.cls-1{fill:#b9dac7;}.cls-2{fill:#0f1110;}.cls-3{fill:#528a4b;}.cls-4{fill:#8ec299;}</style></defs><g id="Trees"><path class="cls-1" d="M301.5,236.5s28,7,41-31,22-60,10-84c-7-11-10-14-17-14s-8,0-7-10,1-39-7-46-16-10-30-3c-3-15-3-30-28-26s-32.12,30-29.06,39,3.06,32,13.06,41c-9,3-32,15-3,51-12,2-20,24-12,35S262.5,240.5,301.5,236.5Z"/><path class="cls-2" d="M296,264s8.85,1,11.93,0c.07-14-3.93-50-3.93-50l16-25-9,7-7,13s-7-50-2-67,10-41,10-48c-2,7-10,33-12,41s-4,32.47-4,32.47-4.89-29.62-6.45-38S275,87,275,87s2,19,5,26,17.5,83.86,17.5,83.86S272,156,251,155c18,12,36.41,33.77,42.7,44.89C294,217,296,264,296,264Z"/><path class="cls-3" d="M184.5,224.5s35-23,43-34,21-37,22-51,1.65-20-1.67-21.52-9.33,7.52-11.33,9.52-8,7-6-4,5-34,0-45-9-7-10-4-3,8-7,9S210,74,207.73,71.25,194.5,26.5,188.5,49.5s-1,29.49-4,35.74-1,8.26-5,2.26-4-2-8,5-12,35.14-9.5,41.07c-6.5-2.07-14.5-6.07-13.5,2.93s5,43,13,53S177.5,222.5,184.5,224.5Z"/><path class="cls-2" d="M181,252s2.29,3,5.64,0c0-18,2.36-69,2.36-69l18-23-19,20-1-49-5,65-13-42,11,47Z"/><path class="cls-4" d="M110.5,14.5s-58,55-53,113,24,99,49,95,59-29,55-91S166.5,79.5,110.5,14.5Z"/><polygon class="cls-2" points="103 270 113.53 270 109.51 209.25 124 189 138 177 118 192 108 202 109.51 143.1 130 116 108 138 106 54 103 42.35 103 156.18 95 132 78.59 118.64 96 146 101 172 103 270"/></g></svg>