<svg xmlns="http://www.w3.org/2000/svg" viewBox="0 0 200 300"><defs><style>.cls-1{fill:#528a4b;}.cls-2{fill:#0f1110;}</style></defs><g id="Trees"><path class="cls-1" d="M85.5,231.5s35-23,43-34,21-37,22-51,1.65-20-1.67-21.52-9.33,7.52-11.33,9.52-8,7-6-4,5-34,0-45-9-7-10-4-3,8-7,9S111,81,108.73,78.25,95.5,33.5,89.5,56.5s-1,29.49-4,35.74-1,8.26-5,2.26-4-2-8,5-12,35.14-9.5,41.07c-6.5-2.07-14.5-6.07-13.5,2.93s5,43,13,53S78.5,229.5,85.5,231.5Z"/><path class="cls-2" d="M82,259s2.29,3,5.64,0c0-18,2.36-69,2.36-69l18-23L89,187l-1-49-5,65L70,161l11,47Z"/></g></svg>