<svg xmlns="http://www.w3.org/2000/svg" viewBox="0 0 200 300"><defs><style>.cls-1{fill:#b9dac7;}.cls-2{fill:#0f1110;}</style></defs><g id="Trees"><path class="cls-1" d="M107.5,248.5s28,7,41-31,22-60,10-84c-7-11-10-14-17-14s-8,0-7-10,1-39-7-46-16-10-30-3c-3-15-3-30-28-26s-32.12,30-29.06,39,3.06,32,13.06,41c-9,3-32,15-3,51-12,2-20,24-12,35S68.5,252.5,107.5,248.5Z"/><path class="cls-2" d="M102,276s8.85,1,11.93,0c.07-14-3.93-50-3.93-50l16-25-9,7-7,13s-7-50-2-67,10-41,10-48c-2,7-10,33-12,41s-4,32.47-4,32.47-4.89-29.62-6.45-38S81,99,81,99s2,19,5,26,17.5,83.86,17.5,83.86S78,168,57,167c18,12,36.41,33.77,42.7,44.89C100,229,102,276,102,276Z"/></g></svg>