<svg xmlns="http://www.w3.org/2000/svg" viewBox="0 0 263 285"><defs><style>.cls-1{fill:#528a4b;}.cls-2{fill:#0f1110;}.cls-3{fill:#8ec299;}</style></defs><g id="Trees"><path class="cls-1" d="M168.5,224.5s35-23,43-34,21-37,22-51,1.65-20-1.67-21.52-9.33,7.52-11.33,9.52-8,7-6-4,5-34,0-45-9-7-10-4-3,8-7,9S194,74,191.73,71.25,178.5,26.5,172.5,49.5s-1,29.49-4,35.74-1,8.26-5,2.26-4-2-8,5-12,35.14-9.5,41.07c-6.5-2.07-14.5-6.07-13.5,2.93s5,43,13,53S161.5,222.5,168.5,224.5Z"/><path class="cls-2" d="M165,252s2.29,3,5.64,0c0-18,2.36-69,2.36-69l18-23-19,20-1-49-5,65-13-42,11,47Z"/><path class="cls-3" d="M94.5,14.5s-58,55-53,113,24,99,49,95,59-29,55-91S150.5,79.5,94.5,14.5Z"/><polygon class="cls-2" points="87 270 97.53 270 93.51 209.25 108 189 122 177 102 192 92 202 93.51 143.1 114 116 92 138 90 54 87 42.35 87 156.18 79 132 62.59 118.64 80 146 85 172 87 270"/></g></svg>